<svg version="1.2" xmlns="http://www.w3.org/2000/svg" viewBox="0 0 462 256"><style>.s0{fill:gold}</style><path id="Layer" class="s0" d="M301.4 9.4c-3.8 4.1-14.4 15.3-23.6 24.9l-16.7 17.4 5.3 23.9c2.9 13.1 5.2 24 5 24.2-.1.2-7-3.1-15.3-7.2L241 85v31.3l3.6 4.4c4.9 6 6.7 12.1 5.3 18.1-4.5 20-31.6 20-36.9 0-1.5-5.4.3-11.1 5.6-18l4.4-5.6v-15.1c0-8.3-.3-15.1-.7-15.1-.5.1-7.3 3.4-15.3 7.5-7.9 4-14.6 7.2-14.9 7-.2-.3 1.9-11.1 4.8-24.1l5.1-23.6-18.4-19.2c-10.1-10.5-20.5-21.5-23.1-24.4-2.6-2.8-5.1-5.2-5.5-5.2-.5 0-2.8 2.8-5.2 6.2-21.3 30.2-29.1 41.5-29.5 42.4-.2.6 4.1 11.2 9.7 23.4s9.9 22.4 9.7 22.6c-.2.3-5.9-2-12.5-5.1-6.7-3-12.6-5.5-13.2-5.5-.6 0-1 6.2-.9 17.7v17.8l5.8 4.7c6.7 5.4 9.1 9.7 9.1 16.1 0 5.7-1.4 9.4-4.8 13-5.9 6.2-15.2 8.4-22.5 5.3-7-2.9-12.6-12.9-11.2-19.9.4-1.8 2.2-6.2 4.1-9.9l3.4-6.7v-18.5c0-10.3-.3-18.6-.7-18.6-.4 0-6 5.2-12.4 11.6l-11.5 11.5-1.3-4.3c-5.4-18-19.1-33.4-37.9-42.5C24 59.9 7.5 55 1.8 55h-3L4 60.7c6.1 6.9 16.4 21.9 24.5 35.6C47 128 62.4 173.4 66.6 208.2c.7 6.4 1 6.6 7.5 4.2 21-7.4 62-15.3 98.9-18.9 22.4-2.3 73.7-3.1 97-1.6 41.5 2.7 82.4 9.4 112.2 18.5 6.5 2 12.2 3.6 12.7 3.6.4 0 1.1-2.5 1.5-5.4 2.1-17.9 10.5-50.5 18.1-70.1 11.4-29.4 31.5-64 46.4-79.8l3.5-3.7h-3c-9.4 0-30.9 7.9-42.3 15.4-12.1 8.1-23.2 22.9-27.2 36.4l-1.3 4.3-11.5-11.5c-6.4-6.4-12-11.6-12.4-11.6-.4 0-.7 8.3-.7 18.4v18.4l3.5 7.3c5.1 10.8 4.7 18.8-1.3 25.3-3.5 3.7-8.1 5.6-13.6 5.6-8.2 0-14.2-3.9-17.7-11.5-4-8.7-1.7-16.8 7.2-24.5l5.9-5.1v-17.5c0-11.6-.4-17.4-1.1-17.4-.5 0-6.4 2.5-13.1 5.6-6.6 3-12.2 5.3-12.5 5.1-.2-.3 3.5-8.9 8.2-19.3 4.8-10.3 9.3-20.5 10.2-22.5l1.5-3.8-5.4-7.8c-9.9-14.3-29-41.8-29.3-42.1-.1-.1-3.3 3.1-7.1 7.2z"/><path class="s0" d="M194 204.6c-42.8 3-82.3 9.6-114 19.1l-12.5 3.8-.3 12.3c-.1 6.7 0 12.2.3 12.2s5.8-1.6 12.3-3.5c74.6-22.1 173.4-26.2 257.2-10.9 20.1 3.7 46.9 10.4 56.5 14 1.3.5 1.5-1.2 1.5-11.8v-12.5l-10.2-3.1c-27.5-8.3-57.8-14.1-92.9-17.8-14.6-1.5-83.5-2.8-97.9-1.8z"/></svg>